<mxfile host="app.diagrams.net" modified="2023-11-01T16:32:44.783Z" agent="Mozilla/5.0 (Windows NT 10.0; Win64; x64) AppleWebKit/537.36 (KHTML, like Gecko) Chrome/118.0.0.0 Safari/537.36" etag="HB-VbHqfK8p2dO-2IFiH" version="22.0.8" type="github">
  <diagram name="第 1 页" id="zJEJ6vRs23Op94450Si6">
    <mxGraphModel dx="1434" dy="750" grid="1" gridSize="10" guides="1" tooltips="1" connect="1" arrows="1" fold="1" page="1" pageScale="1" pageWidth="827" pageHeight="1169" math="0" shadow="0">
      <root>
        <mxCell id="0" />
        <mxCell id="1" parent="0" />
        <mxCell id="Li08ngZv_8AePVbSKfDl-1" value="企鵝" style="swimlane;fontStyle=1;align=center;verticalAlign=top;childLayout=stackLayout;horizontal=1;startSize=26;horizontalStack=0;resizeParent=1;resizeParentMax=0;resizeLast=0;collapsible=1;marginBottom=0;whiteSpace=wrap;html=1;fillColor=#fad7ac;strokeColor=#b46504;" vertex="1" parent="1">
          <mxGeometry x="458.5" y="340" width="60" height="90" as="geometry" />
        </mxCell>
        <mxCell id="Li08ngZv_8AePVbSKfDl-2" value="&amp;nbsp;" style="text;strokeColor=none;fillColor=none;align=left;verticalAlign=top;spacingLeft=4;spacingRight=4;overflow=hidden;rotatable=0;points=[[0,0.5],[1,0.5]];portConstraint=eastwest;whiteSpace=wrap;html=1;" vertex="1" parent="Li08ngZv_8AePVbSKfDl-1">
          <mxGeometry y="26" width="60" height="24" as="geometry" />
        </mxCell>
        <mxCell id="Li08ngZv_8AePVbSKfDl-3" value="" style="line;strokeWidth=1;fillColor=none;align=left;verticalAlign=middle;spacingTop=-1;spacingLeft=3;spacingRight=3;rotatable=0;labelPosition=right;points=[];portConstraint=eastwest;strokeColor=inherit;" vertex="1" parent="Li08ngZv_8AePVbSKfDl-1">
          <mxGeometry y="50" width="60" height="8" as="geometry" />
        </mxCell>
        <mxCell id="Li08ngZv_8AePVbSKfDl-4" value="+下蛋()" style="text;strokeColor=none;fillColor=none;align=left;verticalAlign=top;spacingLeft=4;spacingRight=4;overflow=hidden;rotatable=0;points=[[0,0.5],[1,0.5]];portConstraint=eastwest;whiteSpace=wrap;html=1;" vertex="1" parent="Li08ngZv_8AePVbSKfDl-1">
          <mxGeometry y="58" width="60" height="32" as="geometry" />
        </mxCell>
        <mxCell id="Li08ngZv_8AePVbSKfDl-5" value="&lt;p style=&quot;margin:0px;margin-top:4px;text-align:center;&quot;&gt;&lt;b&gt;氣候&lt;/b&gt;&lt;/p&gt;&lt;hr size=&quot;1&quot;&gt;&lt;div style=&quot;height:2px;&quot;&gt;&lt;/div&gt;&lt;hr size=&quot;1&quot;&gt;&lt;div style=&quot;height:2px;&quot;&gt;&lt;/div&gt;" style="verticalAlign=top;align=left;overflow=fill;fontSize=12;fontFamily=Helvetica;html=1;whiteSpace=wrap;fillColor=#b1ddf0;strokeColor=#10739e;" vertex="1" parent="1">
          <mxGeometry x="350" y="355" width="50" height="60" as="geometry" />
        </mxCell>
        <mxCell id="Li08ngZv_8AePVbSKfDl-6" style="edgeStyle=orthogonalEdgeStyle;rounded=0;orthogonalLoop=1;jettySize=auto;html=1;exitX=0;exitY=0.5;exitDx=0;exitDy=0;entryX=1;entryY=0.5;entryDx=0;entryDy=0;endArrow=open;endFill=0;" edge="1" parent="1" source="Li08ngZv_8AePVbSKfDl-2" target="Li08ngZv_8AePVbSKfDl-5">
          <mxGeometry relative="1" as="geometry" />
        </mxCell>
        <mxCell id="Li08ngZv_8AePVbSKfDl-7" value="&lt;span style=&quot;font-size: 14px;&quot;&gt;關聯關係&lt;/span&gt;" style="shape=note;size=20;whiteSpace=wrap;html=1;fillColor=#dae8fc;strokeColor=#6c8ebf;align=left;" vertex="1" parent="1">
          <mxGeometry x="368.5" y="300" width="90" height="30" as="geometry" />
        </mxCell>
      </root>
    </mxGraphModel>
  </diagram>
</mxfile>
